# xmcd CD database file
#
# Track frame offsets:
#	150
#	19493
#	37291
#	56255
#	74937
#	99919
#	113531
#	134972
#	165310
#	184575
#
# Disc length: 2863 seconds
#
# Revision: 0
# Processed by: cddbd v1.5.2PL0 Copyright (c) Steve Scherf et al.
# Submitted via: CDex 1.96
#
DISCID=8f0b2d0a
DTITLE=Conor Gains - Compass
DYEAR=2018
DGENRE=Blues
TTITLE0=I Know
TTITLE1=Walking Alone
TTITLE2=Dance Like It's Your Birthday
TTITLE3=Ordinary Love
TTITLE4=I've Been Looking For Your Heart
TTITLE5=In My Head
TTITLE6=Back To You
TTITLE7=Miracle
TTITLE8=Darkness In The Light
TTITLE9=Mexico
EXTD=YEAR: 2018
EXTT0=
EXTT1=
EXTT2=
EXTT3=
EXTT4=
EXTT5=
EXTT6=
EXTT7=
EXTT8=
EXTT9=
PLAYORDER=
